<svg height="16" viewBox="0 0 16 16" width="16" xmlns="http://www.w3.org/2000/svg"><path d="m1.1353061 6.3340833 2.2339658 2.1336366-3.36927142 1.5092355.58267474.5565066 3.36927128-1.5092357 2.5253032 2.4118907-3.3692714 1.509235.5826753.556508 3.3692711-1.509236 2.2339648 2.133636.8792405-.393847-2.2339661-2.133637 3.8106081-1.7069287 2.233967 2.1336387.879239-.393848-2.233966-2.1336379 3.370988-1.5100047-.582676-.5565074-3.370989 1.5100048-2.5241635-2.4108038 3.3692715-1.5092354-.582676-.5565058-3.3692711 1.5092354-2.2339649-2.133637-.8792392.3938474 2.2339657 2.133637-3.8117471 1.7058407-2.2339659-2.1336367zm3.6958792 2.2962954 3.811747-1.7058406 2.5241657 2.410804-3.8106089 1.7069279z" fill="#fc7f7f" stroke-width=".999999"/></svg>