<?xml version="1.0" encoding="UTF-8" standalone="no"?>
<!-- Created with Inkscape (http://www.inkscape.org/) -->

<svg
   width="128"
   height="128"
   viewBox="0 0 33.866666 33.866668"
   version="1.1"
   id="svg5"
   inkscape:version="1.1.2 (b8e25be833, 2022-02-05)"
   sodipodi:docname="logo.svg"
   xmlns:inkscape="http://www.inkscape.org/namespaces/inkscape"
   xmlns:sodipodi="http://sodipodi.sourceforge.net/DTD/sodipodi-0.dtd"
   xmlns="http://www.w3.org/2000/svg"
   xmlns:svg="http://www.w3.org/2000/svg">
  <sodipodi:namedview
     id="namedview7"
     pagecolor="#505050"
     bordercolor="#eeeeee"
     borderopacity="1"
     inkscape:pageshadow="0"
     inkscape:pageopacity="0"
     inkscape:pagecheckerboard="0"
     inkscape:document-units="px"
     showgrid="false"
     units="px"
     inkscape:snap-grids="true"
     inkscape:snap-smooth-nodes="true"
     inkscape:object-paths="true"
     inkscape:snap-intersection-paths="true"
     inkscape:snap-object-midpoints="true"
     inkscape:zoom="2"
     inkscape:cx="28"
     inkscape:cy="58"
     inkscape:window-width="1920"
     inkscape:window-height="1057"
     inkscape:window-x="-8"
     inkscape:window-y="-8"
     inkscape:window-maximized="1"
     inkscape:current-layer="g4125"
     inkscape:snap-page="true"
     inkscape:snap-midpoints="false"
     inkscape:snap-bbox="false">
    <inkscape:grid
       type="xygrid"
       id="grid824"
       spacingx="2.1166667"
       spacingy="2.1166667"
       color="#fff100"
       opacity="0.27843137"
       empcolor="#fff100"
       empopacity="0.61960784"
       empspacing="8" />
  </sodipodi:namedview>
  <defs
     id="defs2" />
  <g
     inkscape:label="Capa 1"
     inkscape:groupmode="layer"
     id="layer1">
    <g
       id="g4125">
      <path
         style="color:#000000;fill:#ffffff;fill-opacity:0.978138;stroke-width:1;-inkscape-stroke:none"
         d="M 11.318144,0.5291671 10.759554,1.0916626 7.4978617,4.3533555 13.111098,9.9704983 9.9704983,13.111098 4.3533555,7.4978617 0.5291671,11.318144 l 5.6171428,5.617142 -5.6171428,5.617144 3.8241884,3.820282 5.6171428,-5.613238 3.1405997,3.140601 -5.6132363,5.617144 3.8202823,3.820281 5.617142,-5.613237 5.617144,5.613237 3.820282,-3.820281 -5.613238,-5.617144 3.140601,-3.140601 5.617144,5.613238 L 33.3375,22.55243 27.724263,16.935286 33.3375,11.318144 29.517219,7.4978617 23.900075,13.111098 20.759474,9.9704983 26.372712,4.3533555 22.55243,0.5291671 16.935286,6.1463099 Z m 0.0039,2.2460758 5.613236,5.6171429 5.613238,-5.6171429 1.578112,1.5781126 -5.613237,5.6171428 5.386676,5.3866757 5.617144,-5.6171427 1.578111,1.5781127 -5.617143,5.617142 5.617143,5.613238 -1.578111,1.578112 -5.617144,-5.613237 -5.386676,5.386676 5.613237,5.617144 L 22.548518,31.09533 16.93528,25.478187 11.322044,31.09533 9.7439375,29.517219 15.357174,23.900075 9.9704983,18.513399 4.3533555,24.126636 2.7752429,22.548524 8.3923858,16.935286 2.7752429,11.318144 4.3533555,9.7439375 9.9704983,15.357174 15.357174,9.9704983 9.7439375,4.3533555 Z m 5.613236,8.7733681 -0.562495,0.558589 -4.82418,4.828086 5.386675,5.386676 5.386676,-5.386676 z m 0,2.246075 3.1406,3.1406 -3.1406,3.1406 -3.1406,-3.1406 z"
         id="path32868" />
      <path
         style="color:#000000;fill:#e27777;stroke-width:1;-inkscape-stroke:none"
         d="M 4.5017917,8.4744164 1.5057218,11.46658 22.403993,32.360944 25.396157,29.368782 Z"
         id="path19941" />
      <path
         style="color:#000000;fill:#e27777;stroke-width:1;-inkscape-stroke:none"
         d="M 11.46658,1.5057218 8.4744164,4.5017917 29.368782,25.396157 32.360944,22.403993 Z"
         id="path19943" />
      <path
         style="color:#000000;fill:#859adf;stroke-width:1;-inkscape-stroke:none"
         d="M 22.403993,1.5057218 1.5057218,22.403993 4.5017917,25.396157 25.396157,4.5017917 Z"
         id="path19945" />
      <path
         style="color:#000000;fill:#859adf;stroke-width:1;-inkscape-stroke:none"
         d="M 29.368782,8.4744164 8.4744164,29.368782 11.46658,32.360944 32.360944,11.46658 Z"
         id="path19947" />
      <path
         style="color:#000000;fill:#c1a4e5;stroke-width:1;-inkscape-stroke:none"
         d="m 23.732107,14.11109 -2.656229,2.656229 2.992164,2.992164 2.656229,-2.656229 z"
         id="path29037" />
      <path
         style="color:#000000;fill:#c1a4e5;stroke-width:1;-inkscape-stroke:none"
         d="m 16.767319,7.1463019 -2.656229,2.6562289 2.992164,2.9921632 2.656229,-2.656228 z"
         id="path29037-2" />
      <path
         style="color:#000000;fill:#c1a4e5;stroke-width:1;-inkscape-stroke:none"
         d="m 9.8025308,14.11109 -2.6562289,2.656229 2.9921641,2.992164 2.656228,-2.656229 z"
         id="path29037-2-4" />
      <path
         style="color:#000000;fill:#c1a4e5;stroke-width:1;-inkscape-stroke:none"
         d="m 16.767319,21.075878 -2.656229,2.656229 2.992164,2.992164 2.656229,-2.656229 z"
         id="path29037-2-4-5" />
    </g>
  </g>
</svg>
