<?xml version="1.0" encoding="UTF-8" standalone="no"?>
<!-- Created with Inkscape (http://www.inkscape.org/) -->

<svg
   width="128"
   height="128"
   viewBox="0 0 33.866666 33.866668"
   version="1.1"
   id="svg5"
   inkscape:version="1.1.2 (b8e25be833, 2022-02-05)"
   sodipodi:docname="logo.svg"
   xmlns:inkscape="http://www.inkscape.org/namespaces/inkscape"
   xmlns:sodipodi="http://sodipodi.sourceforge.net/DTD/sodipodi-0.dtd"
   xmlns="http://www.w3.org/2000/svg"
   xmlns:svg="http://www.w3.org/2000/svg">
  <sodipodi:namedview
     id="namedview7"
     pagecolor="#505050"
     bordercolor="#eeeeee"
     borderopacity="1"
     inkscape:pageshadow="0"
     inkscape:pageopacity="0"
     inkscape:pagecheckerboard="0"
     inkscape:document-units="mm"
     showgrid="false"
     units="px"
     inkscape:snap-grids="true"
     inkscape:snap-smooth-nodes="true"
     inkscape:object-paths="true"
     inkscape:snap-intersection-paths="true"
     inkscape:snap-object-midpoints="true"
     inkscape:zoom="2.8284271"
     inkscape:cx="48.436815"
     inkscape:cy="95.812969"
     inkscape:window-width="1920"
     inkscape:window-height="1057"
     inkscape:window-x="-8"
     inkscape:window-y="-8"
     inkscape:window-maximized="1"
     inkscape:current-layer="g4125">
    <inkscape:grid
       type="xygrid"
       id="grid824"
       spacingx="2.1166667"
       spacingy="2.1166667"
       color="#fff100"
       opacity="0.27843137"
       empcolor="#fff100"
       empopacity="0.61960784"
       empspacing="8" />
  </sodipodi:namedview>
  <defs
     id="defs2" />
  <g
     inkscape:label="Capa 1"
     inkscape:groupmode="layer"
     id="layer1">
    <g
       id="g4125">
      <path
         id="path9568"
         style="stroke-width:6.00000008;stroke:#1a1a1a;stroke-opacity:1;fill:none;stroke-miterlimit:4;stroke-dasharray:none"
         d="M 8 8 L 8 14.855469 L 8 25.138672 L 8 36 L 8.0019531 36 L 8.0019531 39.994141 L 31.992188 39.994141 L 31.992188 60 L 8.0019531 60 L 8.0019531 64 L 8 64 L 8 92 L 8 120 L 36 120 L 39.994141 120 L 64 120 L 68.001953 120 L 68.001953 95.994141 L 88.007812 95.994141 L 88.007812 120 L 95.994141 120 L 120 120 L 120 92 L 120 88.007812 L 120 64 L 120 60 L 95.994141 60 L 95.994141 39.994141 L 120 39.994141 L 120 31.992188 L 120 8 L 92 8 L 64 8 L 64 8.0019531 L 60 8.0019531 L 60 31.992188 L 39.994141 31.992188 L 39.994141 8.0019531 L 36 8.0019531 L 36 8 L 25.138672 8 L 14.855469 8 L 8 8 z M 39.994141 68.001953 L 60 68.001953 L 60 88.007812 L 39.994141 88.007812 L 39.994141 68.001953 z "
         transform="scale(0.26458333)" />
      <path
         d="M 3.9304317,2.1166665 A 1.8137648,1.8137648 0 0 0 2.1166669,3.9304315 V 6.6510787 A 1.8137648,1.8137648 0 0 0 3.9304317,8.4648435 H 6.6510789 A 1.8137648,1.8137648 0 0 0 8.4648437,6.6510787 V 3.9304315 A 1.8137648,1.8137648 0 0 0 6.6510789,2.1166665 Z M 3.0235491,4.8373137 a 0.4534413,0.4534413 0 0 1 0.9068826,0 v 0.9068826 a 0.4534413,0.4534413 0 0 1 -0.9068826,0 z m 4.5344122,0.9068826 a 0.4534412,0.4534412 0 0 1 -0.9068824,0 V 4.8373137 a 0.4534412,0.4534412 0 0 1 0.9068824,0 z M 6.5730869,7.4799691 a 1.8137648,1.8137648 0 0 1 -2.5646634,0 0.4534412,0.4534412 0 0 1 0.6411658,-0.6411658 0.90688242,0.90688242 0 0 0 1.2823318,0 0.4534412,0.4534412 0 0 1 0.6411658,0.6411658 z"
         fill="#8da5f3"
         id="path6633"
         style="stroke-width:0.264582" />
      <path
         id="path3795"
         style="fill:#fc7f7f;stroke-width:1.05833;stroke-linecap:square"
         d="M 2.1166671,2.1166669 H 9.5249999 V 9.5249997 H 2.1166671 Z" />
      <path
         id="path3792"
         style="fill:#fc7f7f;stroke-width:1.05833;stroke-linecap:square"
         d="m 16.933334,2.1166665 h 7.408334 v 7.4083328 h -7.408334 z" />
      <path
         id="path3789"
         style="fill:#8da5f3;stroke-width:1.05833;stroke-linecap:square"
         d="M 24.341668,2.1166675 H 31.75 v 7.4083328 h -7.408332 z" />
      <path
         id="path3786"
         style="fill:#fc7f7f;stroke-width:1.05833;stroke-linecap:square"
         d="M 9.5250005,9.5249993 H 16.933333 V 16.933332 H 9.5250005 Z" />
      <path
         id="path3783"
         style="fill:#8da5f3;stroke-width:1.05833;stroke-linecap:square"
         d="m 16.933334,9.5250003 h 7.408334 v 7.4083327 h -7.408334 z" />
      <path
         id="path3780"
         style="fill:#fc7f7f;stroke-width:1.05833;stroke-linecap:square"
         d="m 2.1166665,16.933332 h 7.4083328 v 7.408334 H 2.1166665 Z" />
      <path
         id="path3777"
         style="fill:#fc7f7f;stroke-width:1.05833;stroke-linecap:square"
         d="m 16.933334,16.933332 h 7.408334 v 7.408334 h -7.408334 z" />
      <path
         id="path3774"
         style="fill:#8da5f3;stroke-width:1.05833;stroke-linecap:square"
         d="M 24.341668,16.933332 H 31.75 v 7.408334 h -7.408332 z" />
      <path
         id="path3771"
         style="fill:#fc7f7f;stroke-width:1.05833;stroke-linecap:square"
         d="m 24.341666,24.341666 h 7.408332 v 7.408332 h -7.408332 z" />
      <path
         id="path3768"
         style="fill:#8da5f3;stroke-width:1.05833;stroke-linecap:square"
         d="M 2.1166675,24.341668 H 9.5250003 V 31.75 H 2.1166675 Z" />
      <path
         id="path3765"
         style="fill:#fc7f7f;stroke-width:1.05833;stroke-linecap:square"
         d="m 9.5249995,24.341666 h 7.4083325 v 7.408332 H 9.5249995 Z" />
      <path
         style="color:#000000;fill:#ffffff;stroke:none;stroke-width:1;-inkscape-stroke:none"
         d="M 8.4648437,2.1171871 V 31.75 H 10.582031 V 2.1171871 Z"
         id="path3843" />
      <path
         style="color:#000000;fill:#ffffff;stroke:none;stroke-width:1;-inkscape-stroke:none"
         d="M 15.875,2.1171871 V 31.75 h 2.117187 V 2.1171871 Z"
         id="path3840" />
      <path
         style="color:#000000;fill:#ffffff;stroke:none;stroke-width:1;-inkscape-stroke:none"
         d="M 23.285156,2.1171871 V 31.75 h 2.113282 V 2.1171871 Z"
         id="path3837" />
      <path
         style="color:#000000;fill:#ffffff;stroke:none;stroke-width:1;-inkscape-stroke:none"
         d="M 2.1171873,8.4648435 V 10.582031 H 31.75 V 8.4648435 Z"
         id="path3834" />
      <path
         style="color:#000000;fill:#ffffff;stroke:none;stroke-width:1;-inkscape-stroke:none"
         d="m 2.1171873,15.875 v 2.117187 H 31.75 V 15.875 Z"
         id="path3831" />
      <path
         style="color:#000000;fill:#ffffff;stroke:none;stroke-width:1;-inkscape-stroke:none"
         d="m 2.1171873,23.285156 v 2.113282 H 31.75 v -2.113282 z"
         id="path3828" />
    </g>
  </g>
</svg>
